<?xml version="1.0" encoding="utf-8"?>
<!-- Generator: Adobe Illustrator 22.0.1, SVG Export Plug-In . SVG Version: 6.00 Build 0)  -->
<svg version="1.1" id="Capa_1" xmlns="http://www.w3.org/2000/svg" xmlns:xlink="http://www.w3.org/1999/xlink" x="0px" y="0px"
	 viewBox="0 0 66.2 71" style="enable-background:new 0 0 66.2 71;" xml:space="preserve">
<style type="text/css">
	.st0{fill:#1C2E7A;}
</style>
<g>
	<path class="st0" d="M54.5,24.7L54.5,24.7c-0.7-0.2-1.4-0.5-2.2-0.7c0.1-0.5,0.2-1,0.3-1.5c1.6-8.1,0.6-14.6-3.1-16.7
		C46,3.7,40.3,5.9,34.5,11c-0.6,0.5-1.1,1-1.7,1.6c-0.4-0.4-0.7-0.7-1.1-1C25.6,6,19.5,3.7,15.8,5.9c-3.5,2.1-4.6,8.2-3.1,15.8
		c0.1,0.8,0.3,1.5,0.5,2.3c-0.9,0.2-1.7,0.5-2.5,0.8C3.6,27.3-1,31.2-1,35.3c0,4.2,4.9,8.5,12.3,11.1c0.6,0.2,1.2,0.4,1.8,0.6
		c-0.2,0.8-0.4,1.6-0.5,2.4c-1.4,7.5-0.3,13.5,3.2,15.6c3.6,2.1,9.7-0.1,15.6-5.3c0.5-0.4,0.9-0.9,1.4-1.3c0.6,0.6,1.2,1.1,1.8,1.7
		c5.7,5,11.4,7,14.9,5c3.6-2.1,4.8-8.5,3.3-16.4c-0.1-0.6-0.3-1.2-0.4-1.8c0.4-0.1,0.8-0.3,1.3-0.4c7.7-2.6,12.8-6.8,12.8-11.1
		C66.5,31.2,61.8,27.2,54.5,24.7z M36.4,13.2c5-4.4,9.6-6.1,11.8-4.9c2.3,1.3,3.1,6.6,1.7,13.6c-0.1,0.5-0.2,0.9-0.3,1.4
		c-2.8-0.7-5.8-1.1-9-1.4c-1.9-2.7-3.8-5.1-5.7-7.2C35.3,14.1,35.8,13.7,36.4,13.2z M18.9,38.8c0.6,1.2,1.2,2.4,1.9,3.5
		c0.7,1.2,1.4,2.4,2.1,3.5c-2.2-0.3-4.3-0.6-6.2-1C17.3,42.9,18.1,40.9,18.9,38.8z M18.9,32c-0.8-2-1.6-4-2.1-5.9
		c1.9-0.4,4-0.8,6.1-1.1c-0.7,1.1-1.4,2.3-2.1,3.4C20.2,29.6,19.5,30.8,18.9,32z M20.5,35.4c0.9-1.9,1.8-3.7,2.9-5.5v0
		c1-1.8,2.1-3.6,3.3-5.3c2-0.2,4.1-0.2,6.1-0.2c2.1,0,4.2,0.1,6.2,0.2c1.1,1.7,2.2,3.5,3.3,5.3c1,1.8,2,3.6,2.9,5.5
		c-0.9,1.9-1.9,3.7-2.9,5.5h0c-1,1.8-2.1,3.6-3.2,5.3c-2,0.1-4.1,0.2-6.2,0.2c-2.1,0-4.1-0.1-6.1-0.2c-1.2-1.7-2.3-3.5-3.3-5.3
		C22.3,39.1,21.3,37.3,20.5,35.4z M44.7,42.4c0.7-1.2,1.3-2.4,2-3.6l0,0c0.9,2.1,1.7,4.1,2.3,6c-2,0.5-4.1,0.8-6.3,1.1
		C43.3,44.7,44,43.5,44.7,42.4z M46.6,32c-0.6-1.2-1.3-2.4-1.9-3.6c-0.7-1.2-1.3-2.3-2.1-3.4c2.2,0.3,4.2,0.6,6.2,1.1
		C48.2,28,47.4,30,46.6,32z M32.8,16.7c1.3,1.5,2.7,3.1,4,4.9c-2.7-0.1-5.3-0.1-8,0C30.1,19.8,31.4,18.2,32.8,16.7z M17.2,8.4
		c2.3-1.3,7.2,0.6,12.5,5.3c0.3,0.3,0.7,0.6,1,0.9c-2,2.1-3.9,4.6-5.7,7.2c-3.2,0.3-6.2,0.8-9,1.4c-0.2-0.7-0.3-1.4-0.5-2.1v0
		C14.3,14.6,15.1,9.6,17.2,8.4z M13.9,44.2c-0.6-0.2-1.1-0.3-1.7-0.5c-3.3-1.1-6-2.6-7.9-4.2c-1.7-1.5-2.5-2.9-2.5-4.1
		c0-2.5,3.7-5.7,9.8-7.8c0.8-0.3,1.5-0.5,2.3-0.7c0.8,2.8,2,5.7,3.3,8.6C15.9,38.4,14.8,41.3,13.9,44.2z M29.6,57.5
		c-2.6,2.3-5.2,4-7.6,4.8l0,0c-2.1,0.7-3.7,0.8-4.7,0.2c-2.1-1.2-3-6-1.8-12.5c0.1-0.8,0.3-1.5,0.5-2.3c2.8,0.6,5.8,1.1,9.1,1.3
		c1.9,2.7,3.8,5.1,5.8,7.2C30.4,56.7,30,57.1,29.6,57.5z M32.9,54.2c-1.4-1.5-2.7-3.1-4.1-4.9c1.3,0.1,2.6,0.1,3.9,0.1
		c1.4,0,2.7,0,4.1-0.1C35.5,51,34.2,52.7,32.9,54.2z M50.4,58.2c-0.4,2.2-1.2,3.7-2.2,4.2c-2.1,1.2-6.7-0.4-11.6-4.6
		c-0.6-0.5-1.1-1-1.7-1.6c1.9-2.1,3.8-4.6,5.7-7.3c3.3-0.3,6.3-0.8,9.1-1.4c0.1,0.6,0.3,1.1,0.4,1.7C50.7,52.7,50.8,55.8,50.4,58.2z
		 M52.8,43.7L52.8,43.7c-0.4,0.1-0.7,0.2-1.1,0.4c-0.9-2.7-2-5.6-3.4-8.7c1.3-2.9,2.5-5.8,3.3-8.5c0.7,0.2,1.4,0.4,2,0.6
		c6.2,2.2,10.1,5.4,10.1,7.9C63.6,38,59.5,41.4,52.8,43.7z"/>
	<path class="st0" d="M32.7,29.2c3.3,0,6,2.7,6,6.1s-2.7,6.1-6,6.1c-3.3,0-6-2.7-6-6.1S29.4,29.2,32.7,29.2"/>
</g>
</svg>
