<?xml version="1.0" encoding="utf-8"?>
<!-- Generator: Adobe Illustrator 22.0.1, SVG Export Plug-In . SVG Version: 6.00 Build 0)  -->
<svg version="1.1" id="Capa_1" xmlns="http://www.w3.org/2000/svg" xmlns:xlink="http://www.w3.org/1999/xlink" x="0px" y="0px"
	 viewBox="0 0 92.3 73.9" style="enable-background:new 0 0 92.3 73.9;" xml:space="preserve">
<style type="text/css">
	.st0{fill:#FDFEFD;}
</style>
<g>
	<g>
		<path class="st0" d="M92.3,27.6c-0.1-2.4-2-4.4-4.5-4.5l-0.6,0c-1.5,0-5.6,0.1-10.8,1.1c-0.9-6.9-2.8-11.8-2.9-12.2
			c-0.5-1.2-1.4-2.1-2.5-2.6C70.4,9.2,69.8,9,69.2,9c-0.6,0-1.3,0.1-1.9,0.4c-0.3,0.1-4.1,1.8-8.7,5.1c-4.1-7.8-8.8-12.8-9.1-13.1
			C48.6,0.5,47.4,0,46.2,0c-1.3,0-2.5,0.5-3.3,1.4c-0.3,0.4-5.1,5.4-9.1,13.1c-4.6-3.3-8.4-5-8.7-5.1C24.4,9.2,23.7,9,23.1,9
			c-0.6,0-1.2,0.1-1.8,0.4c-1.2,0.5-2.1,1.4-2.5,2.6c-0.2,0.4-2,5.3-2.9,12.2c-5.1-1-9.3-1.1-10.8-1.1l-0.6,0
			c-2.4,0.1-4.4,2-4.5,4.5c0,0.9-0.5,21.3,12.2,34.1c11.6,11.6,29.9,12.2,33.4,12.2l0.5,0l0,0l0,0l0.5,0c3.5,0,21.8-0.6,33.4-12.2
			C92.8,48.9,92.4,28.4,92.3,27.6z M69.2,13.7c0,0,1.8,4.8,2.7,11.6c-2.7,0.7-5.5,1.8-8.2,3.1c-0.7-3.4-1.8-6.7-3.1-9.6
			C65.4,15.4,69.2,13.7,69.2,13.7z M23.1,13.7c0,0,3.9,1.7,8.6,5.1c-1.3,3-2.3,6.2-3.1,9.6c-2.8-1.3-5.5-2.4-8.2-3.1
			C21.3,18.5,23.1,13.7,23.1,13.7z M15.5,58.4C4,46.9,4.6,27.7,4.6,27.7s0.2,0,0.5,0c2.4,0,13.2,0.4,22.8,5.5
			c-0.1,1.2-0.2,2.4-0.2,3.7c0,14.2,7.7,26.2,12.1,31.9C33.2,68.1,22.8,65.7,15.5,58.4z M46.3,69.1c-0.1,0-0.2-0.1-0.3-0.1
			c-1.6-1.8-13.7-15.5-13.7-32.1c0-17.8,13.8-32.3,13.8-32.3S60,19.1,60,36.9C60,54.1,47.3,68,46.3,69.1z M76.8,58.4
			c-7.3,7.3-17.7,9.7-24.3,10.5c4.4-5.7,12.1-17.7,12.1-31.9c0-1.3-0.1-2.5-0.2-3.7c9.6-5.1,20.3-5.5,22.8-5.5c0.3,0,0.5,0,0.5,0
			S88.3,46.9,76.8,58.4z"/>
	</g>
</g>
</svg>
