<?xml version="1.0" encoding="utf-8"?>
<!-- Generator: Adobe Illustrator 22.0.1, SVG Export Plug-In . SVG Version: 6.00 Build 0)  -->
<svg version="1.1" id="Capa_1" xmlns="http://www.w3.org/2000/svg" xmlns:xlink="http://www.w3.org/1999/xlink" x="0px" y="0px"
	 viewBox="0 0 110.1 95.5" style="enable-background:new 0 0 110.1 95.5;" xml:space="preserve">
<style type="text/css">
	.st0{fill:#FFFFFF;}
</style>
<g>
	<path class="st0" d="M50.9,34.3c-5.5,1.8-9.2,6.9-9.2,12.7c0,1.5,1.2,2.7,2.7,2.7c1.5,0,2.7-1.2,2.7-2.7c0-3.4,2.2-6.5,5.5-7.5
		c1.4-0.5,2.2-2,1.7-3.4C53.8,34.6,52.3,33.8,50.9,34.3z"/>
	<path class="st0" d="M61.3,35.2c-1.3-0.7-3-0.3-3.7,1c-0.7,1.3-0.3,3,1,3.7c0,0,0,0,0.1,0c0.4,0.2,0.9,0.3,1.3,0.3
		c1,0,1.9-0.5,2.4-1.4C63.1,37.5,62.6,35.9,61.3,35.2z"/>
	<path class="st0" d="M18.4,29l8,4.6c0.4,0.2,0.9,0.4,1.4,0.4c0.9,0,1.9-0.5,2.4-1.4c0.8-1.3,0.3-3-1-3.7l-8-4.6
		c-1.3-0.7-3-0.3-3.7,1C16.7,26.6,17.1,28.2,18.4,29z"/>
	<path class="st0" d="M85.7,61.5c-1.3-0.7-3-0.3-3.7,1c-0.8,1.3-0.3,3,1,3.7l10.3,6c0.4,0.2,0.9,0.4,1.4,0.4c0.9,0,1.9-0.5,2.4-1.4
		c0.8-1.3,0.3-3-1-3.7L85.7,61.5z"/>
	<path class="st0" d="M65.6,17.8c-0.8,1.3-0.4,3,0.9,3.7c1.3,0.8,3,0.4,3.7-0.9l6.2-10.2c0.3-0.4,0.4-0.9,0.4-1.3
		c0-0.9-0.4-1.9-1.3-2.4c-1.3-0.8-3-0.4-3.7,0.9L65.6,17.8z"/>
	<path class="st0" d="M23.9,47c0-1.5-1.2-2.7-2.7-2.7H2.7C1.2,44.3,0,45.5,0,47c0,1.5,1.2,2.7,2.7,2.7h18.5
		C22.7,49.7,23.9,48.5,23.9,47z"/>
	<path class="st0" d="M107.3,49.7L107.3,49.7c1.6,0,2.8-1.2,2.8-2.7c0-1.5-1.2-2.7-2.7-2.7h-0.1c-1.5,0-2.7,1.2-2.7,2.7
		C104.5,48.5,105.8,49.7,107.3,49.7z"/>
	<path class="st0" d="M99.3,44.3H79.9C78.5,31.7,67.9,22,55,22c-13.8,0-25,11.2-25,25c0,3.5,0.7,6.9,2.1,10.1l-13.5,7.8
		c-1.3,0.8-1.7,2.4-1,3.7c0.5,0.9,1.4,1.4,2.4,1.4c0.5,0,0.9-0.1,1.4-0.4l13.5-7.8c0.2,0.3,0.5,0.6,0.7,0.9c1,1.3,2,2.4,2.8,3.4
		l3.6,4.4c1.3,1.8,1.9,3.3,2.2,5.7c-1.2,0.3-2.1,1.4-2.1,2.6v10.1c0,3.7,3,6.7,6.7,6.7h12.5c3.7,0,6.7-3,6.7-6.7V78.8
		c0-1.3-0.9-2.4-2.1-2.6c0.3-2.4,0.9-3.9,2.2-5.7l3.6-4.4c0.8-1,1.8-2.1,2.8-3.4c3-3.7,4.9-8.3,5.4-13h19.4c1.5,0,2.7-1.2,2.7-2.7
		C102,45.5,100.8,44.3,99.3,44.3z M62.5,88.9c0,0.4-0.2,0.8-0.6,1c-0.1,0-0.1,0.1-0.2,0.1c-0.1,0.1-0.3,0.1-0.5,0.1H48.8
		c-0.1,0-0.1,0-0.2,0c-0.6-0.1-1-0.6-1-1.2v-7.4l0,0h14.9l0,0V88.9z M70.2,59.3c-1.2,1.5-2.3,2.8-3.3,3.9c-3.8,4.4-6.1,7-6.6,12.9
		H49.7c-0.5-5.9-2.8-8.5-6.6-12.9c-1-1.1-2.1-2.4-3.3-3.9c-0.6-0.8-1.2-1.6-1.7-2.5c0,0,0,0,0,0c0,0,0,0,0,0
		c-1.7-2.9-2.6-6.3-2.6-9.8c0-10.8,8.8-19.6,19.6-19.6c10.8,0,19.6,8.8,19.6,19.6C74.6,51.5,73.1,55.8,70.2,59.3z"/>
	<path class="st0" d="M11.5,69l-0.1,0.1c-1.3,0.7-1.7,2.4-1,3.7c0.5,0.9,1.4,1.4,2.4,1.4c0.5,0,0.9-0.1,1.4-0.4l0.1-0.1
		c1.3-0.7,1.7-2.4,1-3.7C14.4,68.7,12.8,68.2,11.5,69z"/>
	<path class="st0" d="M84.4,32.8c0.5,0,0.9-0.1,1.4-0.4L95,27c1.3-0.8,1.7-2.4,1-3.7c-0.8-1.3-2.4-1.7-3.7-1L83,27.7
		c-1.3,0.8-1.7,2.4-1,3.7C82.5,32.3,83.4,32.8,84.4,32.8z"/>
	<path class="st0" d="M44.7,21.1c1.3-0.7,1.8-2.4,1-3.7l-9.1-16c-0.7-1.3-2.4-1.8-3.7-1s-1.8,2.4-1,3.7l9.1,16
		C41.8,21.4,43.4,21.9,44.7,21.1z"/>
</g>
</svg>
