<?xml version="1.0" encoding="utf-8"?>
<!-- Generator: Adobe Illustrator 22.0.1, SVG Export Plug-In . SVG Version: 6.00 Build 0)  -->
<svg version="1.1" id="Capa_1" xmlns="http://www.w3.org/2000/svg" xmlns:xlink="http://www.w3.org/1999/xlink" x="0px" y="0px"
	 viewBox="0 0 74.6 46" style="enable-background:new 0 0 74.6 46;" xml:space="preserve">
<style type="text/css">
	.st0{fill:#FFFFFF;}
</style>
<g>
	<path class="st0" d="M52.6,9.9L68,23L52.6,36.1c-1.1,0.9-1.2,2.6-0.3,3.7c0.5,0.6,1.2,0.9,2,0.9c0.6,0,1.2-0.2,1.7-0.6L73.7,25
		c0.6-0.5,0.9-1.2,0.9-2c0-0.8-0.3-1.5-0.9-2L56,5.9c-1.1-0.9-2.7-0.8-3.7,0.3C51.4,7.3,51.5,8.9,52.6,9.9z"/>
	<path class="st0" d="M0.9,25L18.6,40c0.5,0.4,1.1,0.6,1.7,0.6c0.7,0,1.5-0.3,2-0.9c0.9-1.1,0.8-2.7-0.3-3.7L6.6,23L21.9,9.9
		c1.1-0.9,1.2-2.6,0.3-3.7c-0.9-1.1-2.6-1.2-3.7-0.3L0.9,21C0.3,21.5,0,22.2,0,23S0.3,24.5,0.9,25z"/>
	<path class="st0" d="M29.9,45.8c0.3,0.1,0.5,0.1,0.8,0.1c1.1,0,2.1-0.7,2.5-1.8L46.4,3.4c0.4-1.4-0.3-2.8-1.7-3.3
		c-1.4-0.4-2.8,0.3-3.3,1.7L28.2,42.6C27.7,43.9,28.5,45.4,29.9,45.8z"/>
</g>
</svg>
