<?xml version="1.0" encoding="utf-8"?>
<!-- Generator: Adobe Illustrator 22.0.1, SVG Export Plug-In . SVG Version: 6.00 Build 0)  -->
<svg version="1.1" id="Capa_1" xmlns="http://www.w3.org/2000/svg" xmlns:xlink="http://www.w3.org/1999/xlink" x="0px" y="0px"
	 viewBox="0 0 94.2 60.8" style="enable-background:new 0 0 94.2 60.8;" xml:space="preserve">
<style type="text/css">
	.st0{fill:#1C2E7A;}
</style>
<g>
	<path class="st0" d="M82.1,22.2c-0.1,0.1-0.3,0.1-0.4,0.2"/>
	<g>
		<rect x="28.9" y="10.1" class="st0" width="8.7" height="8.8"/>
		<rect x="38.9" y="20.3" class="st0" width="8.7" height="8.8"/>
	</g>
	<g>
		<polygon class="st0" points="18.9,10.1 18.9,18.9 27.5,18.9 27.5,10.1 18.9,10.1 		"/>
		<rect x="8.8" y="20.3" class="st0" width="8.7" height="8.8"/>
		<polygon class="st0" points="18.9,20.3 18.9,29.1 27.5,29.1 27.5,20.3 18.9,20.3 		"/>
		<rect x="28.9" y="20.3" class="st0" width="8.7" height="8.8"/>
		<rect x="38.9" y="10.1" class="st0" width="8.7" height="8.8"/>
		<rect x="38.9" class="st0" width="8.7" height="8.8"/>
		<rect x="48.9" y="20.3" class="st0" width="8.7" height="8.8"/>
	</g>
	<path class="st0" d="M81.7,22.4c0.7-5.3-3.2-9.4-5.7-11.4c-2.8,3.3-3.2,11.8,1.2,15.4c-2.4,2.2-7.6,4.2-12.9,4.2H0.1
		c-0.5,5.6,0.5,10.7,2.7,15.1l0.7,1.4c0.5,0.8,1,1.6,1.5,2.3c2.6,0.2,5.1,0.2,7.3,0.2l0,0C16.7,49.5,20.3,49,23,48
		c0.4-0.1,0.8,0.1,1,0.5c0.1,0.4-0.1,0.8-0.5,1c-0.4,0.1-0.7,0.2-1.1,0.4h0c-2.1,0.6-4.4,1-7.4,1.2c0.2,0-0.2,0-0.2,0
		c-0.1,0-0.2,0-0.3,0c-1.2,0.1-2.4,0.1-3.7,0.1c-1.4,0-2.8,0-4.3-0.1l0,0c5.3,6.1,13.7,9.7,24.2,9.7c22.2,0,41-10,49.3-32.3
		c5.9,0.6,11.6-0.9,14.2-6C90.1,20.1,84.8,20.9,81.7,22.4z M27.1,48.2C27,48.2,27,48.2,27.1,48.2c-1.4,0-2.4-1.1-2.4-2.5
		c0-1.3,1.1-2.4,2.4-2.4c1.3,0,2.4,1.1,2.4,2.4C29.4,47.1,28.4,48.2,27.1,48.2z"/>
	<path class="st0" d="M28.3,44.7c0.1,0.2,0.1,0.5-0.1,0.6c-0.2,0.2-0.5,0.2-0.7,0c-0.2-0.2-0.2-0.5,0-0.7c0.2-0.2,0.4-0.2,0.6-0.1
		c-0.3-0.2-0.6-0.4-1-0.4c-0.9,0-1.6,0.7-1.6,1.7c0,0.9,0.7,1.7,1.6,1.7c0.9,0,1.6-0.7,1.6-1.7C28.7,45.3,28.5,44.9,28.3,44.7z"/>
</g>
</svg>
