<?xml version="1.0" encoding="utf-8"?>
<!-- Generator: Adobe Illustrator 21.1.0, SVG Export Plug-In . SVG Version: 6.00 Build 0)  -->
<svg version="1.1" id="Layer_1" xmlns="http://www.w3.org/2000/svg" xmlns:xlink="http://www.w3.org/1999/xlink" x="0px" y="0px"
	 viewBox="0 0 103 87.6" style="enable-background:new 0 0 103 87.6;" xml:space="preserve">
<style type="text/css">
	.st0{fill:#9EBA52;}
</style>
<path class="st0" d="M395.4,87.8v-67"/>
<path class="st0" d="M96.2,0H56.7c-2.1,0-3.9,0.9-5.2,2.4C50.3,0.9,48.4,0,46.4,0H6.9C3.1,0,0,3.1,0,6.9v67c0,3.8,3.1,6.9,6.9,6.9
	h37.8c2,0,5.2,2.4,5.2,5.2c0,0.9,0.8,1.7,1.7,1.7s1.7-0.8,1.7-1.7c0-2.8,3.2-5.2,5.2-5.2h37.8c3.8,0,6.9-3.1,6.9-6.9v-67
	C103,3.1,100,0,96.2,0z M49.8,79.3c-1.6-1.2-3.4-2-5.2-2H6.9c-1.9,0-3.4-1.5-3.4-3.4v-67C3.4,5,5,3.4,6.9,3.4h39.5
	c1.9,0,3.4,1.5,3.4,3.4V79.3z M99.6,73.8c0,1.9-1.5,3.4-3.4,3.4H58.4c-1.7,0-3.6,0.7-5.2,2V6.9c0-1.9,1.5-3.4,3.4-3.4h39.5
	c1.9,0,3.4,1.5,3.4,3.4V73.8z"/>
</svg>
