<?xml version="1.0" encoding="utf-8"?>
<!-- Generator: Adobe Illustrator 22.0.1, SVG Export Plug-In . SVG Version: 6.00 Build 0)  -->
<svg version="1.1" id="Capa_1" xmlns="http://www.w3.org/2000/svg" xmlns:xlink="http://www.w3.org/1999/xlink" x="0px" y="0px"
	 viewBox="0 0 96.7 27.6" style="enable-background:new 0 0 96.7 27.6;" xml:space="preserve">
<style type="text/css">
	.st0{fill:#FFFFFF;}
	.st1{fill:none;stroke:#FFFFFF;stroke-width:3;stroke-linecap:round;stroke-linejoin:round;stroke-miterlimit:10;}
</style>
<g>
	<g>
		<path class="st0" d="M79.6,3.6l12,10.2L79.6,24c-0.9,0.7-1,2-0.2,2.9c0.4,0.5,1,0.7,1.5,0.7c0.5,0,0.9-0.2,1.3-0.5L96,15.4
			c0.5-0.4,0.7-0.9,0.7-1.5c0-0.6-0.3-1.2-0.7-1.5L82.2,0.5c-0.9-0.7-2.1-0.6-2.9,0.2C78.6,1.6,78.7,2.8,79.6,3.6z"/>
	</g>
	<g>
		<path class="st0" d="M17.4,0.7c-0.7-0.9-2-1-2.9-0.2L0.7,12.3C0.3,12.7,0,13.2,0,13.8c0,0.6,0.3,1.2,0.7,1.5l13.8,11.8
			c0.4,0.3,0.9,0.5,1.3,0.5c0.6,0,1.1-0.2,1.5-0.7c0.7-0.9,0.6-2.1-0.2-2.9l-12-10.2l12-10.2C18,2.8,18.1,1.6,17.4,0.7z"/>
	</g>
	<rect x="26.6" y="8.1" class="st0" width="15.9" height="14.1"/>
	<line class="st1" x1="52.4" y1="10.4" x2="70.2" y2="10.4"/>
	<line class="st1" x1="52.4" y1="19.5" x2="70.2" y2="19.5"/>
</g>
</svg>
