<?xml version="1.0" encoding="utf-8"?>
<!-- Generator: Adobe Illustrator 22.0.1, SVG Export Plug-In . SVG Version: 6.00 Build 0)  -->
<svg version="1.1" id="Capa_1" xmlns="http://www.w3.org/2000/svg" xmlns:xlink="http://www.w3.org/1999/xlink" x="0px" y="0px"
	 viewBox="0 0 98.2 53.3" style="enable-background:new 0 0 98.2 53.3;" xml:space="preserve">
<style type="text/css">
	.st0{fill:#1C2E7A;}
</style>
<g>
	<path class="st0" d="M93.5,53.3c-0.3-5.6-0.5-11.2-1-16.8c-0.5-5.8-1.8-11.5-4.1-16.9c-3.3-7.7-9.2-12.8-17-15.7
		C66.4,2,61.2,1.3,55.9,1c-9.3-0.6-18.4,0.5-27.2,3.5C16.8,8.5,10,17.1,7.4,29.4C6,36.2,6,43.1,6.3,50c0.1,1.1,0.1,2.2,0.1,3.2
		c-0.2,0-0.5,0-0.7,0c-0.1-2.7-0.3-5.5-0.3-8.2c-0.1-5.5,0.2-11,1.5-16.4c0.2-0.9-0.2-1.1-0.9-1.4C2.4,25.7,0,23.1,0,19
		c-0.1-7,7.1-12.3,13.7-10.3c0.7,0.2,1.4,0.4,1.9,0.8c1,0.7,1.7,0.5,2.7-0.2C23.7,4.9,30,2.9,36.5,1.6c9.6-2,19.2-2.1,28.9-0.2
		C70.9,2.5,76,4.4,80.4,8c0.7,0.6,1.2,0.4,1.9,0.1c3.8-2.2,7.7-2.3,11.4,0.4c3.4,2.5,5.1,5.9,4.5,10.3c-0.5,3.1-2.4,5.2-5.1,6.6
		c-1.6,0.9-1.6,0.8-1.2,2.7c1.7,7.5,2.2,15.1,2.4,22.8c0,0.8,0,1.7,0.1,2.5C94,53.3,93.7,53.3,93.5,53.3z M91.3,25.2
		c3.8-1.4,6.1-4.3,6.2-7.8c0.1-4-2.5-8-6.2-9.5c-3-1.2-7.3-0.6-9.2,1.4c0.5,0.4,1,0.9,1.4,1.3c0.5,0.5,0.9,1,1.3,1.5
		c0.4,0.6,0.9,0.7,1.6,0.6c1.5-0.3,2.6,0.3,3.4,1.6c0.8,1.4,0.7,2.6-0.2,3.8c-0.2,0.3-0.4,0.8-0.3,1C89.9,21.2,90.6,23.1,91.3,25.2z
		 M16.3,10.7C10,6.6,1.3,10.8,0.8,18.3c-0.3,3.9,2.6,7.8,6.3,8.4c0.5-1.6,1-3.2,1.5-4.8c-2.8-2.2-3.2-3.3-2.3-5.2
		c1-2,2.3-2.2,5.7-1.2c0.6-0.8,1.2-1.6,1.9-2.4C14.7,12.3,15.5,11.6,16.3,10.7z"/>
	<path class="st0" d="M55.6,44.5c0,1.7,0,3.3,0,4.8c0,1.4-0.6,2.3-1.9,2.9c-1.4,0.7-2.5,0.3-3.6-0.6c-0.3-0.3-0.6-0.7-1-1
		c-0.3,0.3-0.7,0.6-1,0.9c-1.8,1.5-3.8,1.2-4.7-1c-0.6-1.5-0.7-3.2-1-4.8c-0.1-0.4,0-0.7,0.1-1.1c-2.6-1-3.7-2.3-3.7-4.5
		c0-2.2,1.6-4.5,3.8-5.4c0.7-0.3,1.1-0.6,1.1-1.4c0-0.2,0.2-0.5,0.3-0.7c1.7-3.5,8.9-4,11.1-0.8c0.2,0.3,0.5,0.6,0.4,0.9
		c-0.2,1.5,1,1.9,1.9,2.5c1,0.7,2,1.5,2.8,2.4c1.1,1.3,1.5,2.9,0.6,4.5c-0.9,1.6-2.3,2.6-4.2,2.4C56.2,44.5,55.9,44.5,55.6,44.5z
		 M56.7,43.7c1.7,0,2.5-0.8,3.2-1.9c0.6-1,0.7-2.2-0.1-3c-1.2-1.3-2.6-2.3-4-3.4c-0.2-0.1-0.7,0-1,0.1c-1.3,0.5-2.5,1.3-3.8,1.6
		c-2.2,0.4-4.5,0.6-6.4-1c-1.1-1-1.9-0.7-2.7,0c-0.8,0.8-1.5,1.7-1.9,2.7c-0.8,2.1,0.6,5.4,3.9,4.4c0.7-0.2,1.5-0.4,2.2-0.7
		c2.7-1.2,5.4-1.1,8.1,0.3C55,43.3,56,43.5,56.7,43.7z M50.3,42.5c-0.2,0.1-0.3,0.2-0.5,0.3c0,2.2-0.1,4.4,0,6.6
		c0,1.1,1.6,2.4,2.6,2.3c1.5-0.1,2.4-1.1,2.4-2.6c0-1.5-0.1-3.1-0.2-4.6c0-0.3-0.2-0.7-0.5-0.7C52.8,43.3,51.5,42.9,50.3,42.5z
		 M48.7,42.7c-1.6,0.5-3.2,1-4.8,1.5c-0.2,0.1-0.5,0.4-0.5,0.6c-0.3,1.9-0.1,3.8,0.9,5.5c0.4,0.8,1.1,1.5,2,1.1
		c0.9-0.5,2.2-1.3,2.3-2.1C48.9,47.3,48.7,45.1,48.7,42.7z"/>
	<path class="st0" d="M64.8,33.9C58.1,33.9,53,30.1,51.4,24c-1-3.8,0-7.3,2.2-10.4C57.7,8,66.2,6,72.3,9.1c4.7,2.4,6.8,6.6,7,11.8
		c0.2,4.9-2.1,8.5-6.3,10.9C70.5,33.3,67.7,33.9,64.8,33.9z M64.9,33.1c2.8,0,5.5-0.6,7.9-2.1c3.8-2.3,5.9-5.6,5.7-10.2
		c-0.2-4.7-2-8.5-6.2-10.8c-5.9-3.2-14.3-1.2-18.1,4.3c-2,2.8-2.8,5.9-2,9.3C53.7,29.5,58.5,33.1,64.9,33.1z"/>
	<path class="st0" d="M32.1,35.4c-8.4,0-13.9-4.6-14.7-11.1C16.6,17,20.8,11.2,28.1,9.6c3.6-0.8,7.2-0.6,10.6,1.2
		c7.9,4.1,9.1,15.4,2.2,21.1C38,34.3,34.6,35.3,32.1,35.4z M32.7,10c-3.3,0-5.7,0.5-7.8,1.6c-4.5,2.3-6.9,6-6.8,11.2
		c0.2,5.1,3,9.2,7.6,10.9c5,1.8,9.7,1.1,14-2c2.2-1.6,3.7-3.7,4.3-6.3C45.8,18.2,41.9,10.1,32.7,10z"/>
	<path class="st0" d="M32.5,13c-2.2,0-4,1.9-4,4.4c0,2.5,1.8,4.5,4.1,4.4c2.2,0,4-2,4-4.4C36.6,14.9,34.8,13,32.5,13z M32.8,20.4
		c-0.4,0-0.7-0.3-0.7-0.7c0-0.4,0.3-0.7,0.7-0.7c0.4,0,0.7,0.3,0.7,0.7C33.5,20.1,33.2,20.4,32.8,20.4z"/>
	<path class="st0" d="M65.5,11.4c-2.2,0-3.9,2-3.9,4.4c0,2.4,1.8,4.4,4,4.3c2.2,0,3.9-2,3.9-4.4C69.5,13.3,67.7,11.4,65.5,11.4z
		 M65.5,18.6c-0.4,0-0.7-0.3-0.7-0.7c0-0.4,0.3-0.7,0.7-0.7c0.4,0,0.7,0.3,0.7,0.7C66.3,18.3,65.9,18.6,65.5,18.6z"/>
</g>
</svg>
