<?xml version="1.0" encoding="utf-8"?>
<!-- Generator: Adobe Illustrator 22.0.1, SVG Export Plug-In . SVG Version: 6.00 Build 0)  -->
<svg version="1.1" id="Capa_1" xmlns="http://www.w3.org/2000/svg" xmlns:xlink="http://www.w3.org/1999/xlink" x="0px" y="0px"
	 viewBox="0 0 91.3 82.4" style="enable-background:new 0 0 91.3 82.4;" xml:space="preserve">
<style type="text/css">
	.st0{fill:#FFFFFF;}
</style>
<g>
	<g>
		<path class="st0" d="M91.3,24.8c0,2.6-0.4,5.2-1.3,7.7c-3.9,17.8-37.9,39.3-39.3,40.2c-0.5,0.3-1,0.4-1.5,0.4
			c-0.5,0-1-0.1-1.5-0.4c-0.2-0.1-1.5-0.4-5.9-3.5c-3.4-2.5,0-6.8,3.3-4.4c2.5,1.8,2.8,1.5,4.1,2.3c10.2-6.6,32.7-23.6,35.5-36
			c0.7-2.2,1-4.2,1-6.2c0-7.1-3.9-13.6-10.1-17c-7.9-4.4-18.5-2.4-24.3,4.6c-1,1.3-3.2,1.3-4.2,0c-5.8-7-16.4-9-24.3-4.6
			c-6.2,3.4-10.1,10-10.1,17c0,2,0.3,4,1,6c0.4,1.8,1.5,1.5,2.5,3.4L14.9,36l-2,2.1l-1.7-4.8c-0.6-1.4-2.6,0.3-2.8-1
			c-0.8-2.2-1.2-4.8-1.2-7.4c0-9.1,4.9-17.5,12.9-21.9c9.2-5.1,21.5-3.5,29.1,3.7C56.8-0.5,69.1-2.1,78.3,3
			C86.3,7.4,91.3,15.8,91.3,24.8z"/>
	</g>
	<path class="st0" d="M55.4,39.9L55.4,39.9c-0.2-0.2-0.4-0.3-0.6-0.4c-0.7-0.4-1.4-0.6-2.1-0.7l0.2-0.3c2-2.8,1.6-6.6-0.9-8.9
		c-0.2-0.2-0.4-0.3-0.6-0.5c-0.9-0.6-1.9-1-3-1.2c1.2-2.6,0.6-5.8-1.6-7.7c-0.2-0.2-0.4-0.3-0.6-0.5c-1.5-1-3.2-1.4-5-1.1
		c-1.3,0.2-2.6,0.9-3.5,1.8c-0.4-0.7-0.9-1.4-1.5-1.9c-0.2-0.2-0.4-0.3-0.6-0.5c-1.5-1-3.3-1.5-5-1.2c-1.8,0.3-3.4,1.3-4.4,2.7
		l-11.3,16l-0.1-0.7c-0.3-1.7-1.2-3.2-2.7-4.2c-1.4-1-3.2-1.4-4.9-1.1c-3.5,0.6-5.9,3.9-5.4,7.4l0.7,21.4l-1.8,3.1
		C-0.6,63.6,0,66.3,2,67.8l19.5,13.7c0.8,0.6,1.8,0.9,2.7,0.9c1.3,0,2.6-0.5,3.5-1.5l2.9-3.2c3.1-1.4,6.4-3.8,10-7.3
		c2.8-2.8,5.9-6.6,9.4-11.5l6.8-9.7C59.1,46.1,58.4,42,55.4,39.9z M5.7,36.6c-0.3-1.5,0.7-2.9,2.2-3.1c0.2,0,0.3,0,0.5,0
		c0.6,0,1.1,0.2,1.6,0.5c0.6,0.4,1,1,1.1,1.8l1,5.2c0.1,0.5,0.3,0.9,0.7,1.2c0.9,0.6,2.1,0.4,2.7-0.5l13.9-19.7
		c0.4-0.6,1.1-1,1.8-1.1c0.7-0.1,1.5,0.1,2.1,0.5c0.1,0.1,0.2,0.1,0.2,0.2c1,0.9,1.2,2.5,0.3,3.7l-9.6,13.6
		c-0.7,0.9-0.4,2.2,0.5,2.9c0.9,0.7,2.2,0.4,2.9-0.5L40,23.6c0.9-1.2,2.6-1.5,3.9-0.6c0.1,0.1,0.2,0.1,0.3,0.2
		c1,0.9,1.2,2.5,0.3,3.7L32.2,44.2c-0.7,0.9-0.4,2.2,0.5,2.9c0.9,0.7,2.2,0.4,2.9-0.5L45.2,33c0.9-1.2,2.6-1.5,3.8-0.6
		c0.1,0.1,0.2,0.1,0.3,0.2c1,0.9,1.2,2.5,0.4,3.7l-9.6,13.5c-0.3,0.5-0.5,1-0.4,1.6c0.1,0.6,0.4,1,0.9,1.4c0.9,0.6,2.1,0.4,2.8-0.5
		l5.9-8.4c0.8-1.2,2.4-1.6,3.7-0.9c0.1,0,0.1,0,0.1,0.1c0.6,0.4,1,1,1.1,1.7c0.1,0.7-0.1,1.4-0.5,2l-6.8,9.7
		C40.1,66.2,34.2,72,28.7,74.2c-0.3,0.1-0.5,0.3-0.6,0.5l-3.2,3.5c-0.3,0.3-0.8,0.4-1.1,0.1L4.2,64.6c-0.4-0.3-0.5-0.8-0.2-1.2
		l2.4-4l0.1-0.1L5.7,36.6z"/>
</g>
</svg>
