<?xml version="1.0" encoding="utf-8"?>
<!-- Generator: Adobe Illustrator 21.1.0, SVG Export Plug-In . SVG Version: 6.00 Build 0)  -->
<svg version="1.1" id="Layer_1" xmlns="http://www.w3.org/2000/svg" xmlns:xlink="http://www.w3.org/1999/xlink" x="0px" y="0px"
	 viewBox="0 0 119.5 101.5" style="enable-background:new 0 0 119.5 101.5;" xml:space="preserve">
<style type="text/css">
	.st0{fill:#4880EA;}
</style>
<g>
	<g id="Polygon_1_1_">
		<g>
			<path class="st0" d="M112.7,0H6.8C3,0,0,3,0,6.8v65.4c0,3.7,3,6.8,6.8,6.8h7l12.2,22.5l12.2-22.5h74.6c3.7,0,6.8-3,6.8-6.8V6.8
				C119.5,3,116.5,0,112.7,0z M115,67.6c0,3.7-3,6.8-6.8,6.8H35l-8.9,15.4l-8.9-15.4h-5.9c-3.7,0-6.8-3-6.8-6.8V11.3
				c0-3.7,3-6.8,6.8-6.8h96.9c3.7,0,6.8,3,6.8,6.8L115,67.6L115,67.6z"/>
		</g>
	</g>
</g>
</svg>
