<?xml version="1.0" encoding="utf-8"?>
<!-- Generator: Adobe Illustrator 22.0.1, SVG Export Plug-In . SVG Version: 6.00 Build 0)  -->
<svg version="1.1" id="Capa_1" xmlns="http://www.w3.org/2000/svg" xmlns:xlink="http://www.w3.org/1999/xlink" x="0px" y="0px"
	 viewBox="0 0 66.2 75.6" style="enable-background:new 0 0 66.2 75.6;" xml:space="preserve">
<style type="text/css">
	.st0{fill:#1C2E7A;}
</style>
<g>
	<path class="st0" d="M33.1,0c-1,0-2,0.2-2.9,0.7l-27.4,16c-1.8,1-2.9,3-2.9,5.1v32c0,2.1,1.1,4,2.9,5.1L10,63
		c3.5,1.7,4.8,1.7,6.3,1.7c5.1,0,8.1-3.2,8.1-8.7V24.5c0-0.4-0.4-0.8-0.8-0.8h-3.4c-0.4,0-0.8,0.3-0.8,0.8v31.6
		c0,2.4-2.5,4.9-6.6,2.8l-7.5-4.4c-0.3-0.1-0.5-0.4-0.5-0.7v-32c0-0.3,0.2-0.6,0.5-0.8l27.4-16c0.3-0.1,0.6-0.1,0.8,0l27.4,16
		c0.3,0.2,0.5,0.5,0.5,0.8v32c0,0.3-0.2,0.6-0.4,0.8l-27.4,16c-0.2,0.1-0.6,0.1-0.8,0l-7-4.2c-0.2-0.1-0.5-0.1-0.7,0
		c-1.9,1.1-2.3,1.2-4.1,1.9c-0.4,0.2-1.1,0.4,0.2,1.2l9.2,5.5c0.9,0.5,1.9,0.8,2.9,0.8c1,0,2-0.3,2.9-0.8l27.4-16
		c1.8-1,2.9-3,2.9-5.1v-32c0-2.1-1.1-4-2.9-5.1L36,0.7C35.1,0.2,34.1,0,33.1,0L33.1,0z"/>
	<path class="st0" d="M40.4,22.9c-7.8,0-12.5,3.4-12.5,9c0,6.1,4.6,7.7,12.1,8.5c9,0.9,9.7,2.2,9.7,4c0,3.1-2.4,4.4-8.2,4.4
		c-7.2,0-8.8-1.8-9.4-5.5c-0.1-0.4-0.4-0.7-0.8-0.7h-3.6c-0.4,0-0.8,0.4-0.8,0.8c0,4.7,2.5,10.2,14.5,10.2c8.7,0,13.7-3.4,13.7-9.5
		c0-6-4-7.6-12.5-8.7c-8.5-1.1-9.3-1.7-9.3-3.7c0-1.7,0.7-3.9,7-3.9c5.6,0,7.7,1.2,8.6,5.1c0.1,0.4,0.4,0.6,0.8,0.6h3.6
		c0.2,0,0.4-0.1,0.6-0.3c0.2-0.2,0.3-0.4,0.2-0.6C53.6,26,49.2,22.9,40.4,22.9L40.4,22.9z"/>
</g>
</svg>
