<?xml version="1.0" encoding="utf-8"?>
<!-- Generator: Adobe Illustrator 22.0.1, SVG Export Plug-In . SVG Version: 6.00 Build 0)  -->
<svg version="1.1" id="Capa_1" xmlns="http://www.w3.org/2000/svg" xmlns:xlink="http://www.w3.org/1999/xlink" x="0px" y="0px"
	 viewBox="0 0 160.6 44.6" style="enable-background:new 0 0 160.6 44.6;" xml:space="preserve">
<style type="text/css">
	.st0{fill:#FFFFFF;}
</style>
<g>
	<path class="st0" d="M4.8,31.2c1.5-4.3,4.5-7.5,8.8-9.7c4.3-2.2,9.5-3.3,15.6-3.3h13.2c2.1,0,4-0.5,5.7-1.5c1.7-1,2.9-2.3,3.4-3.7
		c0.5-1.4,0.2-2.6-0.8-3.6c-1-1-2.5-1.6-4.5-1.6H13.2L16,0h31.4c3.5,0,6.3,0.3,8.6,1c2.3,0.7,4,1.6,5.1,2.8c1.2,1.2,1.9,2.6,2,4.2
		c0.2,1.6,0,3.3-0.7,5.1c-0.6,1.6-1.5,3.1-2.7,4.7c-1.3,1.5-2.9,2.9-4.9,4.2c-2,1.2-4.5,2.2-7.2,3c-2.8,0.8-6,1.1-9.6,1.1H24.5
		c-1.9,0-3.7,0.5-5.4,1.6c-1.7,1.1-2.8,2.3-3.3,3.7L11,44.6H0L4.8,31.2z"/>
	<path class="st0" d="M111.9,31.5c-1.9,4.3-5.1,7.6-9.6,9.8c-4.5,2.2-9.9,3.3-16.2,3.3H54.8l3-7.8h34c1.9,0,3.8-0.5,5.6-1.6
		c1.8-1,3-2.3,3.7-3.8c0.6-1.4,0.5-2.7-0.3-3.7c-0.8-1.1-2.2-1.6-4.1-1.6H78.8c-5,0-10.4-0.7-12.6-4.3c-2.2-3.5-2.5-9.3,1.7-14
		c3.8-4.3,9.7-6.5,13.3-7.1C84.1,0.2,86.9,0,90.4,0H121l-2.7,7.8H85.2c-1.9,0-3.8,0.5-5.7,1.6c-1.9,1-3.1,2.2-3.7,3.6
		c-0.7,1.5-0.5,2.7,0.4,3.7c0.9,1,2.4,1.5,4.5,1.5h17.4c6.1,0,9.5,0.5,12.1,2.7C114.8,24.9,111.9,31.5,111.9,31.5"/>
	<path class="st0" d="M137.5,44.6c-4.6,0-8.5-0.4-11.6-1.3c-3.2-0.9-5.6-2.2-7.3-3.9c-1.7-1.7-2.7-3.7-3-6.1c-0.3-2.4,0.1-5,1.1-8
		L125.8,0h11l-9.1,25.3c-1.3,3.6-0.9,6.4,1.3,8.4c2.1,2,5.8,3,11,3h20.5l-2.8,7.8H137.5z"/>
	<path class="st0" d="M139.2,2.8c0-1.3,1-2.3,2.3-2.3c1.3,0,2.3,1,2.3,2.3c0,1.3-1,2.3-2.3,2.3C140.2,5,139.2,4,139.2,2.8
		 M143.2,2.8c0-1-0.8-1.7-1.7-1.7c-1,0-1.7,0.7-1.7,1.7c0,1,0.7,1.7,1.7,1.7C142.4,4.5,143.2,3.8,143.2,2.8 M142.5,3.9H142l-0.5-1
		h-0.4v1h-0.5V1.6h1.1c0.5,0,0.9,0.1,0.9,0.7c0,0.4-0.2,0.6-0.6,0.6L142.5,3.9z M141.7,2.6c0.3,0,0.4-0.1,0.4-0.4
		c0-0.2-0.3-0.2-0.5-0.2h-0.5v0.6H141.7z"/>
</g>
</svg>
