<?xml version="1.0" encoding="utf-8"?>
<!-- Generator: Adobe Illustrator 22.0.1, SVG Export Plug-In . SVG Version: 6.00 Build 0)  -->
<svg version="1.1" id="Capa_1" xmlns="http://www.w3.org/2000/svg" xmlns:xlink="http://www.w3.org/1999/xlink" x="0px" y="0px"
	 viewBox="0 0 93.7 54.7" style="enable-background:new 0 0 93.7 54.7;" xml:space="preserve">
<style type="text/css">
	.st0{fill:#1C2E7A;}
</style>
<path class="st0" d="M91.4,5.5L91.4,5.5c0.3-0.1,0.5-0.2,0.6-0.3c0.1-0.2,0.2-0.3,0.2-0.6c0-0.3-0.1-0.5-0.3-0.6
	c-0.2-0.2-0.5-0.3-0.9-0.3h-0.9V7h0.5V5.6h0.3c0.2,0,0.4,0.2,0.6,0.6L91.8,7h0.5L92,6.1C91.8,5.7,91.6,5.5,91.4,5.5z M91.1,5.2h-0.5
	V4.1H91c0.3,0,0.5,0.1,0.6,0.1c0.1,0.1,0.2,0.2,0.2,0.4C91.8,5,91.5,5.2,91.1,5.2z M91.2,2.8c-0.7,0-1.3,0.2-1.8,0.7
	c-0.5,0.5-0.7,1.1-0.7,1.8c0,0.7,0.2,1.3,0.7,1.8c0.5,0.5,1.1,0.7,1.8,0.7c0.7,0,1.3-0.2,1.8-0.7c0.5-0.5,0.7-1.1,0.7-1.8
	c0-0.7-0.2-1.3-0.7-1.8C92.5,3.1,91.9,2.8,91.2,2.8z M92.7,7c-0.4,0.4-1,0.7-1.6,0.7c-0.6,0-1.1-0.2-1.6-0.6c-0.4-0.4-0.7-1-0.7-1.6
	c0-0.6,0.2-1.2,0.6-1.6c0.4-0.4,1-0.6,1.6-0.6c0.6,0,1.2,0.2,1.6,0.6c0.4,0.4,0.6,1,0.6,1.6C93.4,6,93.2,6.5,92.7,7z M12.9,5.4
	c0-1.2,0-2.1-0.1-2.6h0c0.1,0.6,0.3,1.1,0.4,1.4l4.5,10.3h0.8l4.5-10.3c0.1-0.3,0.3-0.7,0.4-1.3h0c-0.1,1-0.1,1.9-0.1,2.6v9h1.6V1
	h-2l-4.2,9.3c-0.2,0.4-0.4,0.9-0.6,1.6h-0.1c-0.1-0.4-0.3-0.9-0.6-1.6L13.4,1h-2.1v13.5h1.5V5.4z M29,2.4c0.3,0,0.5-0.1,0.7-0.3
	C29.9,1.9,30,1.7,30,1.4c0-0.3-0.1-0.5-0.3-0.7c-0.2-0.2-0.4-0.3-0.7-0.3c-0.3,0-0.5,0.1-0.7,0.3C28.1,0.9,28,1.1,28,1.4
	c0,0.3,0.1,0.5,0.3,0.7C28.5,2.3,28.7,2.4,29,2.4z M28.2,14.4h1.5V4.8h-1.5V14.4z M36.6,14.7c1,0,1.9-0.2,2.6-0.7v-1.5
	c-0.7,0.6-1.5,0.8-2.3,0.8c-1,0-1.8-0.3-2.3-1c-0.6-0.7-0.9-1.5-0.9-2.7c0-1.2,0.3-2.1,1-2.8c0.6-0.7,1.4-1,2.4-1
	c0.8,0,1.6,0.2,2.3,0.8V5.1c-0.6-0.3-1.4-0.5-2.2-0.5c-1.5,0-2.7,0.5-3.6,1.5c-0.9,1-1.3,2.2-1.3,3.8c0,1.4,0.4,2.5,1.2,3.4
	C34.1,14.2,35.2,14.7,36.6,14.7z M44.1,5.2c-0.5,0.4-0.8,0.9-1,1.6h0v-2h-1.5v9.6H43V9.5c0-1.1,0.2-2,0.7-2.6
	c0.4-0.6,0.9-0.8,1.6-0.8c0.5,0,0.9,0.1,1.2,0.3V4.8c-0.2-0.1-0.5-0.1-0.9-0.1C45,4.7,44.5,4.8,44.1,5.2z M51.7,14.7
	c1.4,0,2.6-0.5,3.4-1.4c0.8-0.9,1.3-2.2,1.3-3.7c0-1.6-0.4-2.8-1.2-3.7C54.5,5,53.4,4.6,52,4.6c-1.4,0-2.6,0.4-3.4,1.3
	c-0.9,0.9-1.4,2.2-1.4,3.9c0,1.5,0.4,2.6,1.2,3.5C49.2,14.2,50.3,14.7,51.7,14.7z M49.6,6.8c0.6-0.6,1.3-0.9,2.3-0.9
	c1,0,1.7,0.3,2.2,0.9c0.5,0.6,0.8,1.6,0.8,2.8c0,1.2-0.3,2.1-0.8,2.7c-0.5,0.7-1.3,1-2.3,1c-1,0-1.7-0.3-2.3-1
	c-0.6-0.6-0.9-1.5-0.9-2.7C48.7,8.5,49,7.5,49.6,6.8z M63.1,13.8c0.6-0.5,0.9-1.2,0.9-2c0-0.7-0.2-1.3-0.7-1.8
	c-0.4-0.4-0.9-0.7-1.8-1.1c-0.7-0.3-1.2-0.6-1.4-0.8c-0.3-0.2-0.4-0.6-0.4-1c0-0.4,0.2-0.7,0.5-1c0.3-0.2,0.7-0.4,1.2-0.4
	c0.8,0,1.5,0.2,2.2,0.7V5c-0.6-0.3-1.3-0.4-2-0.4c-1,0-1.8,0.3-2.4,0.8c-0.6,0.5-0.9,1.2-0.9,2c0,0.7,0.2,1.3,0.6,1.7
	c0.3,0.4,0.9,0.7,1.7,1.1c0.8,0.3,1.3,0.6,1.6,0.9c0.3,0.2,0.4,0.6,0.4,0.9c0,0.9-0.6,1.3-1.8,1.3c-0.9,0-1.7-0.3-2.5-0.9v1.7
	c0.7,0.4,1.5,0.6,2.4,0.6C61.6,14.7,62.5,14.4,63.1,13.8z M73.6,13.3c0.9-0.9,1.3-2.2,1.3-3.7c0-1.6-0.4-2.8-1.2-3.7
	c-0.8-0.9-1.9-1.3-3.3-1.3c-1.4,0-2.6,0.4-3.4,1.3c-0.9,0.9-1.4,2.2-1.4,3.9c0,1.5,0.4,2.6,1.2,3.5c0.8,0.9,2,1.4,3.4,1.4
	C71.6,14.7,72.7,14.2,73.6,13.3z M67.1,9.7c0-1.2,0.3-2.2,0.9-2.8c0.6-0.6,1.3-0.9,2.3-0.9c1,0,1.7,0.3,2.2,0.9
	c0.5,0.6,0.8,1.6,0.8,2.8c0,1.2-0.3,2.1-0.8,2.7c-0.5,0.7-1.3,1-2.3,1c-1,0-1.7-0.3-2.3-1C67.3,11.7,67.1,10.8,67.1,9.7z M77.4,14.4
	h1.5V6.1h2.2V4.8h-2.2V3.3c0-1.4,0.5-2,1.6-2c0.4,0,0.7,0.1,1,0.3V0.2C81.3,0.1,80.9,0,80.4,0c-0.8,0-1.5,0.3-2,0.8
	c-0.7,0.6-1,1.4-1,2.5v1.6h-1.6v1.3h1.6V14.4z M83.6,11.8c0,1.9,0.8,2.8,2.5,2.8c0.6,0,1.1-0.1,1.4-0.3V13c-0.3,0.2-0.6,0.3-1,0.3
	c-0.5,0-0.9-0.1-1.1-0.4c-0.2-0.3-0.3-0.7-0.3-1.4V6.1h2.4V4.8h-2.4V2c-0.5,0.2-1,0.3-1.5,0.5v2.3H82v1.3h1.6V11.8z M2.7,49.1
	c-0.7,0-1.4,0.3-1.9,0.8c-0.5,0.5-0.8,1.2-0.8,2c0,0.8,0.3,1.4,0.8,2c0.5,0.5,1.2,0.8,1.9,0.8c0.8,0,1.4-0.3,1.9-0.8
	c0.5-0.5,0.8-1.2,0.8-2c0-0.8-0.3-1.4-0.8-2C4.1,49.4,3.4,49.1,2.7,49.1z M35.4,43.7c0,2.4,0.1,4.2,0.2,5.2h-0.1
	c-0.2-0.5-0.7-1.3-1.4-2.4L16.7,18.9h-5.3v35.3h4.1V28.6c0-2.5-0.1-4.1-0.2-4.8h0.1c0.3,0.8,0.7,1.5,1.1,2.2l18,28.1h5V18.9h-4.1
	V43.7z M51.2,38.1h12.6v-3.7H51.2V22.6h13.6v-3.7H47.1v35.3h18.5v-3.7H51.2V38.1z M69.4,22.6h10.1v31.5h4.1V22.6h10v-3.7H69.4V22.6z
	"/>
</svg>
