<?xml version="1.0" encoding="utf-8"?>
<!-- Generator: Adobe Illustrator 22.0.1, SVG Export Plug-In . SVG Version: 6.00 Build 0)  -->
<svg version="1.1" id="Capa_1" xmlns="http://www.w3.org/2000/svg" xmlns:xlink="http://www.w3.org/1999/xlink" x="0px" y="0px"
	 viewBox="0 0 56 56" style="enable-background:new 0 0 56 56;" xml:space="preserve">
<style type="text/css">
	.st0{fill:#FFFFFF;stroke:#FFFFFF;stroke-width:0.75;stroke-miterlimit:10;}
	.st1{fill:#FFFFFF;}
</style>
<g>
	<g id="XMLID_5_">
		<g>
			<path id="XMLID_11_" class="st0" d="M54.4,48.3L37.3,31.2c4.9-7.7,4-18.2-2.7-24.9c-7.8-7.8-20.5-7.8-28.3,0
				C2.5,10,0.4,15,0.4,20.4s2.1,10.4,5.9,14.2c3.8,3.8,8.8,5.9,14.2,5.9c3.9,0,7.6-1.1,10.8-3.1l17.1,17.1c0.8,0.8,1.9,1.3,3.1,1.3
				c1.2,0,2.2-0.4,3.1-1.3c0.8-0.8,1.3-1.9,1.3-3.1C55.6,50.2,55.2,49.1,54.4,48.3z M7.5,33.3c-3.4-3.4-5.3-8-5.3-12.9
				S4.1,11,7.5,7.5c3.6-3.6,8.2-5.3,12.9-5.3c4.7,0,9.3,1.8,12.9,5.3c7.1,7.1,7.1,18.7,0,25.8c-3.4,3.4-8,5.3-12.9,5.3
				C15.5,38.6,11,36.7,7.5,33.3z M53.1,53.1c-0.5,0.5-1.1,0.7-1.8,0.7c-0.7,0-1.3-0.3-1.8-0.7L32.7,36.2c0.7-0.5,1.3-1.1,1.9-1.7
				c0.6-0.6,1.2-1.2,1.7-1.9l16.9,16.9c0.5,0.5,0.7,1.1,0.7,1.8S53.6,52.6,53.1,53.1z"/>
		</g>
	</g>
	<path class="st1" d="M18.1,29.1c-0.4,0-0.9-0.2-1.2-0.5l-6.2-6.2c-0.7-0.7-0.7-1.8,0-2.5c0.7-0.7,1.8-0.7,2.5,0l4.9,4.9l11.1-11.1
		c0.7-0.7,1.8-0.7,2.5,0c0.7,0.7,0.7,1.8,0,2.5L19.4,28.6C19,28.9,18.6,29.1,18.1,29.1z"/>
</g>
</svg>
