<?xml version="1.0" encoding="utf-8"?>
<!-- Generator: Adobe Illustrator 21.1.0, SVG Export Plug-In . SVG Version: 6.00 Build 0)  -->
<svg version="1.1" id="Layer_1" xmlns="http://www.w3.org/2000/svg" xmlns:xlink="http://www.w3.org/1999/xlink" x="0px" y="0px"
	 viewBox="0 0 73.9 95.9" style="enable-background:new 0 0 73.9 95.9;" xml:space="preserve">
<style type="text/css">
	.st0{fill:#DF601B;}
</style>
<g>
	<path class="st0" d="M57.8,95.9c-4.4,0-7.9-3.5-7.9-7.9l2.3-47.8c-6.6-2.5-10.5-9.7-10.5-19.6C41.6,9.2,48.8,0,57.8,0
		c8.9,0,16.2,9.2,16.2,20.6c0,9.9-3.9,17.1-10.5,19.6l2.3,47.7C65.6,92.3,62.1,95.9,57.8,95.9z M57.8,3c-7.2,0-13.1,7.9-13.1,17.5
		c0,9,3.5,15.4,9.5,17c0.7,0.2,1.1,0.8,1.1,1.5L52.9,88c0,2.6,2.2,4.8,4.8,4.8c2.7,0,4.8-2.2,4.8-4.8l-2.3-48.8
		c0-0.7,0.4-1.3,1.1-1.5c5.9-1.7,9.5-8,9.5-17C70.9,10.9,65,3,57.8,3z"/>
	<path class="st0" d="M16.2,95.9c-4.4,0-7.9-3.5-7.9-7.9l2.3-47.8C4.3,37.9,0,31.9,0,25.2V1.5C0,0.7,0.7,0,1.5,0h6.8
		c0.8,0,1.5,0.7,1.5,1.5V22h1.7V1.5c0-0.8,0.7-1.5,1.5-1.5h6.1c0.8,0,1.5,0.7,1.5,1.5V22h1.7V1.5C22.4,0.7,23.1,0,24,0h6.8
		c0.8,0,1.5,0.7,1.5,1.5v23.6c0,6.7-4.3,12.7-10.5,14.9L24,87.9C24,92.3,20.5,95.9,16.2,95.9z M3,3v22.1c0,5.7,3.9,10.8,9.5,12.4
		c0.7,0.2,1.1,0.8,1.1,1.5L11.3,88c0,2.6,2.2,4.8,4.8,4.8S21,90.6,21,88l-2.3-48.9c0-0.7,0.4-1.3,1.1-1.5c5.6-1.5,9.5-6.6,9.5-12.4
		V3h-3.8v20.4c0,0.8-0.7,1.5-1.5,1.5h-4.7c-0.8,0-1.5-0.7-1.5-1.5V3h-3.1v20.4c0,0.8-0.7,1.5-1.5,1.5H8.3c-0.8,0-1.5-0.7-1.5-1.5V3
		H3z"/>
</g>
</svg>
