<?xml version="1.0" encoding="utf-8"?>
<!-- Generator: Adobe Illustrator 21.1.0, SVG Export Plug-In . SVG Version: 6.00 Build 0)  -->
<svg version="1.1" id="Layer_1" xmlns="http://www.w3.org/2000/svg" xmlns:xlink="http://www.w3.org/1999/xlink" x="0px" y="0px"
	 viewBox="0 0 106.1 97.7" style="enable-background:new 0 0 106.1 97.7;" xml:space="preserve">
<style type="text/css">
	.st0{fill:#589CA2;}
</style>
<g>
	<g>
		<g>
			<path class="st0" d="M0,77.4c0,0.1,0,0.1,0,0.2s0,0.1,0,0.2c0,0,0,0.1,0.1,0.2c0,0.1,0,0.1,0.1,0.2l8.7,18.4
				c0,0.1,0.1,0.1,0.1,0.2c0,0,0,0,0,0c0,0,0,0,0,0c0,0,0,0.1,0.1,0.1c0,0,0,0.1,0.1,0.1c0,0,0.1,0.1,0.1,0.1c0,0,0.1,0.1,0.1,0.1
				c0,0,0.1,0,0.1,0.1c0,0,0.1,0.1,0.1,0.1c0,0,0.1,0,0.1,0c0.1,0,0.1,0.1,0.2,0.1c0,0,0.1,0,0.1,0c0,0,0.1,0,0.2,0.1
				c0,0,0.1,0,0.1,0c0.1,0,0.1,0,0.2,0c0,0,0.1,0,0.1,0c0.1,0,0.2,0,0.3,0l0,0l0,0l0,0l0,0c0.1,0,0.2,0,0.2,0c0,0,0.1,0,0.1,0
				c0,0,0.1,0,0.2,0c0,0,0.1,0,0.1,0c0,0,0.1,0,0.2-0.1c0,0,0.1,0,0.1,0h0c0,0,0,0,0,0c0.1,0,0.1,0,0.2-0.1l12.2-7.7
				c1.9-1.2,4.3-1.5,6.5-0.9L54.1,96c3.8,1.2,8.1,0.7,11.6-1.2l37.4-20.3c2.6-1.5,3.7-4.4,2.6-7.2c-1.1-2.8-3.9-4.2-6.8-3.4
				c0,0-0.1,0-0.1,0l-29.1,9.7c-1,0.3-1.6,1.5-1.2,2.5c0.3,1,1.5,1.6,2.5,1.2l29-9.7c1.4-0.4,1.9,0.7,2.1,1.1
				c0.1,0.3,0.5,1.5-0.8,2.3L63.9,91.3c-2.6,1.4-5.8,1.8-8.6,0.9l-23.8-7.2c-3.2-1-6.8-0.5-9.6,1.3L16,72.6l10.6-5.2
				c1-0.3,9.1-2.9,15.3,0c0.1,0,0.1,0,0.2,0.1l17.7,6.4c1,0.5,1.2,1.5,1.1,2.2c-0.1,0.3-0.4,1.5-1.8,1.6c-0.7,0-5-0.3-8.7-0.6
				c-7.6-0.5-7.6-0.5-7.7-0.5c-1.1,0-1.9,0.9-1.9,2c0,1,0.9,1.9,1.9,1.9c0.3,0,4,0.3,7.5,0.5c8.1,0.5,8.9,0.6,9,0.6c0,0,0,0,0,0
				c2.8-0.1,5-2.1,5.5-4.8c0.5-2.7-0.8-5.4-3.4-6.5c0,0-0.1,0-0.2-0.1l-17.8-6.4c-8.1-3.6-17.9-0.2-18.3,0c-0.1,0-0.2,0-0.2,0.1
				L1.1,75.5C1,75.6,1,75.6,1,75.6c-0.1,0-0.1,0.1-0.2,0.1s-0.1,0.1-0.1,0.1c-0.1,0-0.1,0.1-0.2,0.1c0,0-0.1,0.1-0.1,0.2
				c0,0-0.1,0.1-0.1,0.2c0,0.1-0.1,0.1-0.1,0.2c0,0.1-0.1,0.1-0.1,0.2c0,0,0,0.1,0,0.2c0,0.1,0,0.1,0,0.2c0,0.1,0,0.1,0,0.2
				S0,77.3,0,77.4z M12.4,74.3l6,14.2l-7,4.4L4.5,78.2L12.4,74.3z"/>
		</g>
	</g>
	<path class="st0" d="M64.7,33.6h5.5c2.3,0,4.1,1.8,4.1,4.1c0,2.3-1.8,4.1-4.1,4.1h-9.9c-1.1,0-2,0.9-2,2c0,1.1,0.9,2,2,2h5.2v3.9
		c0,1.1,0.9,2,2,2c1.1,0,2-0.9,2-2v-3.9h0.8c4.4,0,8-3.6,8-8s-3.6-8-8-8h-5.5c-2.3,0-4.1-1.8-4.1-4.1s1.8-4.1,4.1-4.1h9.7
		c1.1,0,2-0.9,2-2c0-1.1-0.9-2-2-2h-5v-3.8c0-1.1-0.9-2-2-2c-1.1,0-2,0.9-2,2v3.8h-0.8c-4.4,0-8,3.6-8,8
		C56.7,30,60.3,33.6,64.7,33.6z"/>
	<path class="st0" d="M67.5,63.3c17.4,0,31.6-14.2,31.6-31.6S84.9,0,67.5,0S35.8,14.2,35.8,31.6S50,63.3,67.5,63.3z M67.5,3.9
		c15.3,0,27.7,12.4,27.7,27.7S82.7,59.3,67.5,59.3S39.7,46.9,39.7,31.6S52.2,3.9,67.5,3.9z"/>
</g>
</svg>
