<?xml version="1.0" encoding="utf-8"?>
<!-- Generator: Adobe Illustrator 22.0.1, SVG Export Plug-In . SVG Version: 6.00 Build 0)  -->
<svg version="1.1" id="Capa_1" xmlns="http://www.w3.org/2000/svg" xmlns:xlink="http://www.w3.org/1999/xlink" x="0px" y="0px"
	 viewBox="0 0 104.8 55" style="enable-background:new 0 0 104.8 55;" xml:space="preserve">
<style type="text/css">
	.st0{fill:#1C2E7A;}
</style>
<g>
	<path class="st0" d="M96.2,27.9c-2.2-0.6-4.6-1.3-7-1.9c0.3,1.6,0.5,3,0.8,4.4c2.4,0.7,4.5,1.5,6.8,2.2c1.4,0.4,3,0.2,3.9-0.9
		c0.9-1.1,0.8-2.5,0.2-3.7c-0.9-1.9-3.8-7.4-4.4-8.4c2.3-2.7,6.5-7.7,7.8-9.3c1.3-1.6,0.3-4.5-3.2-3.5c-2.5,0.8-9.4,2.6-10.3,2.8
		c-0.6-0.9-3.6-6.3-4.7-8c-1.5-2.2-4.5-1.9-5.5,1.4c-0.3,0.9-1.3,7.3-1.8,10.1c-0.6,0.2-7.1,2.2-9.9,3.1c-1.2,0.4-2.3,1.4-2.6,2.8
		C66,20.3,67,21.4,68,22c2.3,1.1,4.5,2.1,6.8,3.2c1.6-1,3.2-2,4.8-3.1c-2.5-1-7.6-3-7.5-3.1c3.2-1,6.8-2.2,10-3.3
		c0.6-3.3,1.6-9.9,1.8-9.9c1.6,2.6,3.3,5.5,4.9,8.1l9.9-2.6c-2.2,2.6-4.5,5.6-6.7,8.3L96.2,27.9z"/>
	<path class="st0" d="M29.2,28.9c-4.8,0.5-9.2,4.3-10.3,9.1c-0.5,2.4-0.7,4.9-1.1,7.4c-0.4,3.2-0.8,6.4-1.2,9.6h4.2
		c0.3-2.4,0.7-4.8,1-7.2c1.1,0.5,2.2,1.1,3.2,1.3c6.2,1.6,13-3.2,13.9-9.8C39.7,33.1,35.3,28.4,29.2,28.9z M28.1,45
		c-2.9,0-5.1-2.2-5.1-5.1c0-3.5,3.2-6.7,6.7-6.6c0.1,0,0.1,0,0.2,0c2.7,0.1,4.9,2.4,4.8,5.1C34.6,41.9,31.6,45,28.1,45z"/>
	<path class="st0" d="M19.6,26.1l-4.1,3.1c-0.6-0.7-1-1.3-1.6-1.9c-1.1-0.9-2.1-1.1-3.3-0.3c-1.2,0.7-1.7,1.9-0.8,3
		c1.3,1.6,2.7,3,4.1,4.5c3.5,3.6,4,7,1.7,10.6c-2.4,3.7-7.3,5.5-11.3,4c-2.4-0.9-3.5-2.8-4.2-5.2l4.5-2.5c0.3,0.6,0.6,1.2,0.9,1.8
		c1.2,1.9,3.4,2.2,5.2,0.8c1.6-1.2,1.6-2.9,0.1-4.7c-1.4-1.6-3-3.1-4.3-4.7C2,29.7,5.3,23.3,11.2,22C14.9,21.3,17.5,22.6,19.6,26.1z
		"/>
	<path class="st0" d="M59.9,48.8h-4.3c0.3-2.6,0.7-5.1,1-7.6c0.1-0.9,0.2-1.8,0.1-2.7c-0.2-4.3-3.6-6.4-7.5-4.7
		c-3.8,1.7-5.4,6.6-2.9,9.4c1.6,1.9,4.3,2.3,6.8,1.1c0.6-0.3,1.1-0.7,1.9-1.2c-0.2,1.8-0.4,3.4-0.6,5c-5.2,3.1-11.9,0.2-13.2-5.1
		c-1.1-4.2,0.2-7.7,3.2-10.7c3-2.9,6.5-4.2,10.6-3.1c3.8,1,6.4,4.4,6.2,8.3C61,41.4,60.4,45.1,59.9,48.8L59.9,48.8z"/>
	<path class="st0" d="M91.9,48.9h-5.7l-7.1-10.8c-0.5,3.8-1,7.2-1.4,10.7h-4.7c1-7.7,2-15.3,3-22.8l5.2-3.4c-0.5,3.9-1,7.6-1.5,11.8
		l8-8.9c0.3,1.7,0.5,3.1,0.8,4.7l-5.5,5.9C85.8,40.3,88.8,44.5,91.9,48.9z"/>
	<path class="st0" d="M66.4,48.8h-4.4c0.5-3.6,0.9-7.2,1.4-10.7c0.1-1.1,0.2-2.3,0.5-3.4c0.6-3.2,3.1-5.3,6.3-5.3c0.9,0,1.8,0,2.9,0
		c-0.1,0.8-0.2,1.5-0.3,2.2c-0.1,0.7-0.2,1.4-0.3,2.3c-0.8,0-1.6,0-2.4,0c-1.3-0.1-1.9,0.6-2,1.8c-0.5,3.8-1,7.6-1.5,11.4
		C66.6,47.6,66.5,48.2,66.4,48.8z"/>
</g>
</svg>
