<?xml version="1.0" encoding="utf-8"?>
<!-- Generator: Adobe Illustrator 22.0.1, SVG Export Plug-In . SVG Version: 6.00 Build 0)  -->
<svg version="1.1" id="Capa_1" xmlns="http://www.w3.org/2000/svg" xmlns:xlink="http://www.w3.org/1999/xlink" x="0px" y="0px"
	 viewBox="0 0 66.2 75.6" style="enable-background:new 0 0 66.2 75.6;" xml:space="preserve">
<style type="text/css">
	.st0{fill:#1C2E7A;}
</style>
<path class="st0" d="M60.7,8.5l-3.5,6.3c-6-6.3-14.5-10.2-23.8-10.2C15.2,4.5,0.4,19.3,0.4,37.6C0.4,55.9,15.2,71,33.3,71l0,0
	c18.2,0,33.3-15.2,33.3-33.5C66.7,29.7,64.3,18.3,60.7,8.5z M15.5,62.9c-1.4,0-2.6-1.2-2.6-2.6c0-1.5,1.2-2.6,2.6-2.6
	c1.4,0,2.6,1.2,2.6,2.6C18.2,61.8,17,62.9,15.5,62.9z M46.7,59.6c-4.2,0.5-8.6,0.4-12.8,0.5c-3.5,0.1-7.5-0.1-11.4-0.1
	c3.3-1,6.8-2.1,9.7-3.1c11.6-3.8,21.5-13.2,24.2-25.1c-2.1,5.6-10.7,16.5-24.1,20.9c-4.3,1.4-8.8,2.2-13.2,3.3
	c-0.6,0.1-1.3,0-1.8-0.3c-2.8-1.8-4.3-4.9-4.6-8.1c-0.6-8.6,5.1-15.5,13.7-17.4c3.6-0.8,7.3-0.6,11-1c9.7-1,18.9-8,21.7-13.9
	c0,0,0.5,1.1,0.6,1.5c2.1,6.6,3.8,13.3,3.9,20.2c0.1,3.8-0.3,7.5-1.6,11C59.4,55.1,54,58.7,46.7,59.6z"/>
</svg>
