<?xml version="1.0" encoding="utf-8"?>
<!-- Generator: Adobe Illustrator 22.0.1, SVG Export Plug-In . SVG Version: 6.00 Build 0)  -->
<svg version="1.1" id="Capa_1" xmlns="http://www.w3.org/2000/svg" xmlns:xlink="http://www.w3.org/1999/xlink" x="0px" y="0px"
	 viewBox="0 0 50.7 50.7" style="enable-background:new 0 0 50.7 50.7;" xml:space="preserve">
<style type="text/css">
	.st0{fill:#FFFFFF;}
</style>
<g>
	<path class="st0" d="M47.4,3.3c-4.4-4.4-11.5-4.4-15.8,0l-29,29c-0.2,0.2-0.4,0.5-0.4,0.8L0,49.1c-0.1,0.5,0.1,0.9,0.4,1.2
		c0.3,0.3,0.6,0.4,1,0.4c0.1,0,0.1,0,0.2,0l9.6-1.3c0.8-0.1,1.4-0.8,1.3-1.6s-0.8-1.4-1.6-1.3l-7.7,1l1.5-11.1l11.7,11.7
		c0.3,0.3,0.6,0.4,1,0.4s0.8-0.2,1-0.4l29-29c2.1-2.1,3.3-4.9,3.3-7.9S49.6,5.4,47.4,3.3z M32.2,6.9l4.9,4.9L10.6,38.2l-4.9-4.9
		L32.2,6.9z M17.4,45.1l-4.8-4.8l26.5-26.5l4.8,4.8L17.4,45.1z M45.9,16.5L34.3,4.8c1.5-1.2,3.3-1.9,5.3-1.9c2.2,0,4.3,0.9,5.9,2.4
		c1.6,1.6,2.4,3.6,2.4,5.9C47.8,13.2,47.1,15,45.9,16.5z"/>
</g>
</svg>
